<svg id="Capa_1" data-name="Capa 1" xmlns="http://www.w3.org/2000/svg" viewBox="0 0 91.91 91.91"><defs><style>.cls-1{fill:#0dc153;}.cls-2{fill:#fff;}</style></defs><title>BY-Home</title><circle className="cls-1" cx="45.29" cy="45.96" r="45.96" transform="translate(-19.23 45.48) rotate(-45)"/><path className="cls-2" d="M68.78,45.35a23.11,23.11,0,0,1-34.21,20l-12.77,4L26,57.16a22.61,22.61,0,0,1-3.31-11.81,23.07,23.07,0,0,1,46.13,0ZM45.71,26.12A19.33,19.33,0,0,0,26.33,45.36,19,19,0,0,0,30,56.63L27.6,63.78l7.45-2.37A19.29,19.29,0,1,0,45.71,26.12Zm11.65,24.5c-.14-.23-.52-.37-1.08-.65s-3.35-1.64-3.87-1.82-.89-.29-1.27.28-1.46,1.82-1.79,2.2-.66.42-1.22.14A15.37,15.37,0,0,1,43.58,48a16.88,16.88,0,0,1-3.15-3.89c-.33-.56,0-.86.25-1.14s.57-.65.85-1A3.93,3.93,0,0,0,42.1,41a1,1,0,0,0-.05-1c-.14-.28-1.27-3-1.75-4.16S39.36,35,39,35s-.7-.05-1.08-.05a2.09,2.09,0,0,0-1.51.7,6.33,6.33,0,0,0-2,4.68c0,2.76,2,5.43,2.3,5.8s3.92,6.22,9.66,8.47,5.75,1.5,6.79,1.4S56.56,54.6,57,53.3A4.72,4.72,0,0,0,57.36,50.62Z"/></svg>